<svg width="184" height="148" fill="none" xmlns="http://www.w3.org/2000/svg">
    <path fill="#fff" d="M0 0h184v147.2H0z" />
    <path
            fill-rule="evenodd"
            clip-rule="evenodd"
            d="M46.368 98.624h66.976c.379 0 .749-.04 1.104-.119a5.17 5.17 0 0 0 1.104.119h38.272a5.152 5.152 0 1 0 0-10.304h-4.416a5.152 5.152 0 0 1 0-10.304h13.984a5.152 5.152 0 1 0 0-10.304H147.2a5.152 5.152 0 1 0 0-10.304h-47.104a5.152 5.152 0 1 0 0-10.304H58.144a5.152 5.152 0 1 0 0 10.304h-29.44a5.152 5.152 0 1 0 0 10.304h18.4a5.152 5.152 0 1 1 0 10.304h-29.44a5.152 5.152 0 1 0 0 10.304h28.704a5.152 5.152 0 1 0 0 10.304Zm119.968 0a5.152 5.152 0 1 0 0-10.304 5.152 5.152 0 0 0 0 10.304Z"
            fill="#F3F7FF"
    />
    <path
            fill-rule="evenodd"
            clip-rule="evenodd"
            d="M83.255 82.658a8.832 8.832 0 1 0 17.49 0h21.431v19.646a2.208 2.208 0 0 1-2.208 2.208H64.032a2.208 2.208 0 0 1-2.208-2.208V82.658h21.431Z"
            fill="#fff"
    />
    <path
            fill-rule="evenodd"
            clip-rule="evenodd"
            d="M101.568 82.432a9.568 9.568 0 1 1-19.122-.51H61.824l7.037-20.805a2.208 2.208 0 0 1 2.091-1.501h42.096c.947 0 1.788.604 2.092 1.5l7.036 20.806h-20.621c.009.169.013.339.013.51Z"
            fill="#fff"
    />
    <path
            fill-rule="evenodd"
            clip-rule="evenodd"
            d="M100.168 83.135c0 4.083-3.657 8.129-8.168 8.129-4.51 0-8.168-4.046-8.168-8.13 0-.132.004-1 .012-1.13H68.448L74.455 67.4c.259-.692.977-1.159 1.785-1.159h31.52c.808 0 1.527.467 1.785 1.16l6.007 14.604h-15.395c.007.13.011.998.011 1.13Z"
            fill="#E8F0FE"
    />
    <path
            clip-rule="evenodd"
            d="M62.744 82.073v19.495c0 .711.577 1.288 1.288 1.288h55.936c.711 0 1.288-.577 1.288-1.288V82.073l-6.988-20.662a1.288 1.288 0 0 0-1.22-.875H70.952c-.552 0-1.043.352-1.22.875l-6.988 20.662Z"
            stroke="#206EAD"
            stroke-width="1.84"
    />
    <path
            d="M72.128 81.696h9.38c1.381 0 1.381.97 1.381 1.472 0 4.878 4.045 8.832 9.035 8.832s9.035-3.954 9.035-8.832c0-.502 0-1.472 1.381-1.472h18.364m-54.042 0h1.786-1.786Z"
            stroke="#206EAD"
            stroke-width="1.84"
            stroke-linecap="round"
            stroke-linejoin="round"
    />
    <path
            d="m110.473 42.91-8.169 9.166M91.337 39.744v12.332-12.332Zm-19.21 3.167 8.17 9.165-8.17-9.165Z"
            stroke="#3D8DCD"
            stroke-width="1.84"
            stroke-linecap="round"
            stroke-linejoin="round"
    />
</svg>
