<svg width="18" height="18" viewBox="0 0 18 18" fill="none" xmlns="http://www.w3.org/2000/svg">
<path opacity="0.4" d="M12.18 2.73602H5.82003C3.96753 2.73602 2.46753 4.24352 2.46753 6.08852V13.146C2.46753 14.991 3.97503 16.4985 5.82003 16.4985H12.1725C14.025 16.4985 15.525 14.991 15.525 13.146V6.08852C15.5325 4.23602 14.025 2.73602 12.18 2.73602Z" fill="white"/>
<path d="M10.7625 1.5H7.2375C6.4575 1.5 5.82 2.13 5.82 2.91V3.615C5.82 4.395 6.45 5.025 7.23 5.025H10.7625C11.5425 5.025 12.1725 4.395 12.1725 3.615V2.91C12.18 2.13 11.5425 1.5 10.7625 1.5ZM11.25 9.7125H6C5.6925 9.7125 5.4375 9.4575 5.4375 9.15C5.4375 8.8425 5.6925 8.5875 6 8.5875H11.25C11.5575 8.5875 11.8125 8.8425 11.8125 9.15C11.8125 9.4575 11.5575 9.7125 11.25 9.7125ZM9.285 12.7125H6C5.6925 12.7125 5.4375 12.4575 5.4375 12.15C5.4375 11.8425 5.6925 11.5875 6 11.5875H9.285C9.5925 11.5875 9.8475 11.8425 9.8475 12.15C9.8475 12.4575 9.5925 12.7125 9.285 12.7125Z" fill="white"/>
</svg>
