<svg width="25" height="26" viewBox="0 0 25 26" fill="none" xmlns="http://www.w3.org/2000/svg">
<path d="M12.5 10.1115V2.81987L10.4167 4.9032M12.5 2.81987L14.5834 4.9032M2.06252 14.2782H6.65627C7.0521 14.2782 7.40627 14.497 7.58335 14.8511L8.8021 17.2886C8.97458 17.6357 9.24046 17.9278 9.56985 18.1321C9.89925 18.3363 10.2791 18.4447 10.6667 18.4449H14.3438C14.7314 18.4447 15.1112 18.3363 15.4406 18.1321C15.77 17.9278 16.0359 17.6357 16.2083 17.2886L17.4271 14.8511C17.5137 14.6793 17.6461 14.5349 17.8097 14.4337C17.9734 14.3326 18.1618 14.2788 18.3542 14.2782H22.8959" stroke="#571B1B" stroke-width="1.5" stroke-linecap="round" stroke-linejoin="round"/>
<path d="M7.29168 6.08029C3.60418 6.62196 2.08335 8.78863 2.08335 13.2365V16.3615C2.08335 21.5699 4.16668 23.6532 9.37502 23.6532H15.625C20.8334 23.6532 22.9167 21.5699 22.9167 16.3615V13.2365C22.9167 8.78863 21.3959 6.62196 17.7084 6.08029" stroke="#571B1B" stroke-width="1.5" stroke-linecap="round" stroke-linejoin="round"/>
</svg>
