<svg width="25" height="26" viewBox="0 0 25 26" fill="none" xmlns="http://www.w3.org/2000/svg">
<path d="M12.5 2.81987V9.06987L14.5833 6.98654M12.5 9.06987L10.4167 6.98654" stroke="#2E571B" stroke-width="1.5" stroke-linecap="round" stroke-linejoin="round"/>
<path d="M5.20835 13.2365V9.06987C5.20835 6.97612 5.20835 5.24695 8.33335 4.94487M19.7917 13.2365V9.06987C19.7917 6.97612 19.7917 5.24695 16.6667 4.94487M7.29168 13.2365C3.12502 13.2365 3.12502 15.1011 3.12502 17.4032V18.4449C3.12502 21.3199 3.12502 23.6532 8.33335 23.6532H16.6667C20.8333 23.6532 21.875 21.3199 21.875 18.4449V17.4032C21.875 15.1011 21.875 13.2365 17.7083 13.2365C16.6667 13.2365 16.375 13.4553 15.8333 13.8615L14.7708 14.9865C14.4787 15.2972 14.1261 15.5449 13.7347 15.7141C13.3432 15.8834 12.9213 15.9707 12.4948 15.9707C12.0683 15.9707 11.6464 15.8834 11.255 15.7141C10.8635 15.5449 10.5109 15.2972 10.2188 14.9865L9.16668 13.8615C8.62502 13.4553 8.33335 13.2365 7.29168 13.2365Z" stroke="#2E571B" stroke-width="1.5" stroke-miterlimit="10" stroke-linecap="round" stroke-linejoin="round"/>
</svg>
