<svg width="33" height="33" viewBox="0 0 33 33" fill="none" xmlns="http://www.w3.org/2000/svg">
<path d="M24.805 18.6313C24.2275 19.195 23.8975 20.0063 23.98 20.8725C24.1038 22.3575 25.465 23.4437 26.95 23.4437H29.5625V25.08C29.5625 27.9262 27.2387 30.25 24.3925 30.25H8.6075C5.76125 30.25 3.4375 27.9262 3.4375 25.08V15.8263C3.4375 12.98 5.76125 10.6562 8.6075 10.6562H24.3925C27.2387 10.6562 29.5625 12.98 29.5625 15.8263V17.8062H26.785C26.015 17.8062 25.3138 18.1088 24.805 18.6313Z" stroke="#1F1B57" stroke-width="1.5" stroke-linecap="round" stroke-linejoin="round"/>
<path d="M3.4375 17.0637V10.78C3.4375 9.14374 4.44125 7.68624 5.9675 7.10874L16.885 2.98374C17.2806 2.83467 17.7064 2.78382 18.126 2.83555C18.5455 2.88729 18.9462 3.04005 19.2937 3.28074C19.6413 3.52143 19.9252 3.84286 20.1211 4.21742C20.3171 4.59199 20.4192 5.00851 20.4188 5.43124V10.6562M9.625 16.5H19.25M31.0186 19.2087V22.0412C31.0186 22.7975 30.4136 23.4162 29.6436 23.4437H26.9486C25.4636 23.4437 24.1024 22.3575 23.9786 20.8725C23.8961 20.0062 24.2261 19.195 24.8036 18.6312C25.3124 18.1087 26.0136 17.8062 26.7836 17.8062H29.6436C30.4136 17.8337 31.0186 18.4525 31.0186 19.2087V19.2087Z" stroke="#1F1B57" stroke-width="1.5" stroke-linecap="round" stroke-linejoin="round"/>
</svg>
