<svg width="16" height="16" viewBox="0 0 16 16" fill="none" xmlns="http://www.w3.org/2000/svg">
<path opacity="0.4" d="M14.168 6.10003C13.8495 5.59891 13.4858 5.12805 13.0813 4.69336L10.568 7.20669C10.648 7.45336 10.6946 7.72003 10.6946 8.00003C10.6946 9.49336 9.48797 10.6934 8.00131 10.6934C7.72131 10.6934 7.45464 10.6467 7.20797 10.5667L4.90131 12.8734C5.87464 13.42 6.92797 13.7067 8.00131 13.7067C9.18797 13.7067 10.3413 13.36 11.3946 12.7134C12.448 12.06 13.3946 11.1067 14.168 9.89336C14.8346 8.85336 14.8346 7.14669 14.168 6.10003Z" fill="white"/>
<path d="M9.34666 6.65332L6.65332 9.34666C6.31332 8.99999 6.09332 8.51999 6.09332 7.99999C6.09332 6.95332 6.94666 6.09332 7.99999 6.09332C8.51999 6.09332 8.99999 6.31332 9.34666 6.65332Z" fill="white"/>
<path opacity="0.4" d="M12.1666 3.83335L9.90665 6.09335C9.6573 5.84177 9.36018 5.64257 9.03275 5.50748C8.70532 5.37238 8.35418 5.30411 7.99998 5.30668C6.50665 5.30668 5.30665 6.51335 5.30665 8.00002C5.30665 8.74668 5.60665 9.42002 6.09331 9.90668L3.83998 12.1667H3.83331C3.09331 11.5667 2.41331 10.8 1.83331 9.89335C1.16665 8.84668 1.16665 7.14668 1.83331 6.10002C2.60665 4.88668 3.55331 3.93335 4.60665 3.28002C5.65998 2.64002 6.81331 2.28668 7.99998 2.28668C9.48665 2.28668 10.9266 2.83335 12.1666 3.83335Z" fill="white"/>
<path d="M9.90533 7.99867C9.90533 9.04533 9.052 9.90533 7.99867 9.90533C7.95866 9.90533 7.92533 9.90533 7.88533 9.892L9.892 7.88533C9.90533 7.92533 9.90533 7.95866 9.90533 7.99867ZM14.5127 1.486C14.3127 1.286 13.986 1.286 13.786 1.486L1.486 13.7927C1.286 13.9927 1.286 14.3193 1.486 14.5193C1.53346 14.5666 1.58985 14.604 1.65189 14.6293C1.71394 14.6546 1.78039 14.6673 1.84739 14.6667C1.9144 14.6661 1.9806 14.6522 2.04217 14.6257C2.10373 14.5993 2.15942 14.5608 2.206 14.5127L14.5127 2.206C14.7193 2.006 14.7193 1.686 14.5127 1.486Z" fill="white"/>
</svg>
