<svg width="18" height="18" viewBox="0 0 18 18" fill="none" xmlns="http://www.w3.org/2000/svg">
<g clip-path="url(#clip0_73_2166)">
<path d="M14.8418 11.1975C14.1094 11.928 13.1914 12.4448 12.1869 12.6919C11.1824 12.9391 10.1295 12.9073 9.14176 12.6L5.60926 16.125C5.35426 16.3875 4.85176 16.545 4.49176 16.4925L2.85676 16.2675C2.31676 16.1925 1.81426 15.6825 1.73176 15.1425L1.50676 13.5075C1.45426 13.1475 1.62676 12.645 1.87426 12.39L5.39926 8.86499C4.79926 6.91499 5.26426 4.70249 6.80926 3.16499C9.02176 0.95249 12.6143 0.95249 14.8343 3.16499C17.0543 5.37749 17.0543 8.98499 14.8418 11.1975V11.1975Z" stroke="#B2AFCE" stroke-width="1.5" stroke-miterlimit="10" stroke-linecap="round" stroke-linejoin="round"/>
<path opacity="0.4" d="M5.16751 13.116L6.89251 14.841" stroke="#B2AFCE" stroke-width="1.5" stroke-miterlimit="10" stroke-linecap="round" stroke-linejoin="round"/>
<path opacity="0.4" d="M10.875 8.25C11.1734 8.25 11.4595 8.13147 11.6705 7.9205C11.8815 7.70952 12 7.42337 12 7.125C12 6.82663 11.8815 6.54048 11.6705 6.3295C11.4595 6.11853 11.1734 6 10.875 6C10.5766 6 10.2905 6.11853 10.0795 6.3295C9.86853 6.54048 9.75 6.82663 9.75 7.125C9.75 7.42337 9.86853 7.70952 10.0795 7.9205C10.2905 8.13147 10.5766 8.25 10.875 8.25Z" stroke="#B2AFCE" stroke-width="1.5" stroke-linecap="round" stroke-linejoin="round"/>
</g>
<defs>
<clipPath id="clip0_73_2166">
<rect width="18" height="18" fill="white"/>
</clipPath>
</defs>
</svg>
