<svg width="18" height="18" viewBox="0 0 18 18" fill="none" xmlns="http://www.w3.org/2000/svg">
<path opacity="0.4" d="M13.1551 6.60748C13.4466 6.60748 13.7353 6.55006 14.0046 6.43849C14.274 6.32693 14.5187 6.1634 14.7248 5.95726C14.931 5.75111 15.0945 5.50638 15.2061 5.23704C15.3176 4.96769 15.3751 4.67901 15.3751 4.38748C15.3751 4.09595 15.3176 3.80727 15.2061 3.53792C15.0945 3.26858 14.931 3.02385 14.7248 2.8177C14.5187 2.61156 14.274 2.44803 14.0046 2.33647C13.7353 2.2249 13.4466 2.16748 13.1551 2.16748C12.5663 2.16748 12.0016 2.40137 11.5853 2.8177C11.169 3.23403 10.9351 3.7987 10.9351 4.38748C10.9351 4.97626 11.169 5.54093 11.5853 5.95726C12.0016 6.37359 12.5663 6.60748 13.1551 6.60748Z" fill="white"/>
<path d="M4.845 6.60748C5.13653 6.60748 5.42521 6.55006 5.69456 6.43849C5.9639 6.32693 6.20863 6.1634 6.41478 5.95726C6.62092 5.75111 6.78445 5.50638 6.89601 5.23704C7.00758 4.96769 7.065 4.67901 7.065 4.38748C7.065 4.09595 7.00758 3.80727 6.89601 3.53792C6.78445 3.26858 6.62092 3.02385 6.41478 2.8177C6.20863 2.61156 5.9639 2.44803 5.69456 2.33647C5.42521 2.2249 5.13653 2.16748 4.845 2.16748C4.25622 2.16748 3.69155 2.40137 3.27522 2.8177C2.85889 3.23403 2.625 3.7987 2.625 4.38748C2.625 4.97626 2.85889 5.54093 3.27522 5.95726C3.69155 6.37359 4.25622 6.60748 4.845 6.60748ZM13.155 15.8332C13.7438 15.8332 14.3084 15.5993 14.7248 15.183C15.1411 14.7667 15.375 14.202 15.375 13.6132C15.375 13.0244 15.1411 12.4598 14.7248 12.0435C14.3084 11.6271 13.7438 11.3932 13.155 11.3932C12.5662 11.3932 12.0016 11.6271 11.5852 12.0435C11.1689 12.4598 10.935 13.0244 10.935 13.6132C10.935 14.202 11.1689 14.7667 11.5852 15.183C12.0016 15.5993 12.5662 15.8332 13.155 15.8332Z" fill="white"/>
<path opacity="0.4" d="M4.845 15.8332C5.43378 15.8332 5.99845 15.5994 6.41478 15.183C6.83111 14.7667 7.065 14.202 7.065 13.6132C7.065 13.0245 6.83111 12.4598 6.41478 12.0435C5.99845 11.6271 5.43378 11.3932 4.845 11.3932C4.25622 11.3932 3.69155 11.6271 3.27522 12.0435C2.85889 12.4598 2.625 13.0245 2.625 13.6132C2.625 14.202 2.85889 14.7667 3.27522 15.183C3.69155 15.5994 4.25622 15.8332 4.845 15.8332Z" fill="white"/>
</svg>
