<svg width="18" height="18" viewBox="0 0 18 18" fill="none" xmlns="http://www.w3.org/2000/svg">
<path opacity="0.4" d="M1.5 9.7275V5.2425C1.5 3.1725 3.18 1.5 5.25 1.5H12.75C14.82 1.5 16.5 3.1725 16.5 5.2425V10.4775C16.5 12.54 14.82 14.2125 12.75 14.2125H11.625C11.3925 14.2125 11.1675 14.325 11.025 14.5125L9.9 16.005C9.405 16.665 8.595 16.665 8.1 16.005L6.975 14.5125C6.855 14.3475 6.585 14.2125 6.375 14.2125H5.25C3.18 14.2125 1.5 12.54 1.5 10.4775V9.7275Z" fill="#B2AFCE"/>
<path d="M9 9C8.58 9 8.25 8.6625 8.25 8.25C8.25 7.8375 8.5875 7.5 9 7.5C9.4125 7.5 9.75 7.8375 9.75 8.25C9.75 8.6625 9.42 9 9 9ZM12 9C11.58 9 11.25 8.6625 11.25 8.25C11.25 7.8375 11.5875 7.5 12 7.5C12.4125 7.5 12.75 7.8375 12.75 8.25C12.75 8.6625 12.42 9 12 9ZM6 9C5.58 9 5.25 8.6625 5.25 8.25C5.25 7.8375 5.5875 7.5 6 7.5C6.4125 7.5 6.75 7.8375 6.75 8.25C6.75 8.6625 6.42 9 6 9Z" fill="#B2AFCE"/>
</svg>
