<svg width="18" height="18" viewBox="0 0 18 18" fill="none" xmlns="http://www.w3.org/2000/svg">
<path opacity="0.4" d="M9 1.5C7.035 1.5 5.4375 3.0975 5.4375 5.0625C5.4375 6.99 6.945 8.55 8.91 8.6175C8.97 8.61 9.03 8.61 9.075 8.6175H9.1275C10.0495 8.58674 10.9234 8.19861 11.5645 7.53518C12.2055 6.87175 12.5634 5.98503 12.5625 5.0625C12.5625 3.0975 10.965 1.5 9 1.5Z" fill="white"/>
<path d="M12.81 10.6117C10.7175 9.21674 7.30497 9.21674 5.19747 10.6117C4.24497 11.2492 3.71997 12.1117 3.71997 13.0342C3.71997 13.9567 4.24497 14.8117 5.18997 15.4417C6.23997 16.1467 7.61997 16.4992 8.99997 16.4992C10.38 16.4992 11.76 16.1467 12.81 15.4417C13.755 14.8042 14.28 13.9492 14.28 13.0192C14.2725 12.0967 13.755 11.2417 12.81 10.6117Z" fill="white"/>
</svg>
