<svg width="18" height="18" viewBox="0 0 18 18" fill="none" xmlns="http://www.w3.org/2000/svg">
<path opacity="0.4" d="M1.5 9.66075V8.34075C1.5 7.56075 2.1375 6.91575 2.925 6.91575C4.2825 6.91575 4.8375 5.95575 4.155 4.77825C3.765 4.10325 3.9975 3.22575 4.68 2.83575L5.9775 2.09325C6.57 1.74075 7.335 1.95075 7.6875 2.54325L7.77 2.68575C8.445 3.86325 9.555 3.86325 10.2375 2.68575L10.32 2.54325C10.6725 1.95075 11.4375 1.74075 12.03 2.09325L13.3275 2.83575C14.01 3.22575 14.2425 4.10325 13.8525 4.77825C13.17 5.95575 13.725 6.91575 15.0825 6.91575C15.8625 6.91575 16.5075 7.55325 16.5075 8.34075V9.66075C16.5075 10.4407 15.87 11.0857 15.0825 11.0857C13.725 11.0857 13.17 12.0457 13.8525 13.2232C14.2425 13.9057 14.01 14.7757 13.3275 15.1657L12.03 15.9082C11.4375 16.2607 10.6725 16.0507 10.32 15.4582L10.2375 15.3157C9.5625 14.1382 8.4525 14.1382 7.77 15.3157L7.6875 15.4582C7.335 16.0507 6.57 16.2607 5.9775 15.9082L4.68 15.1657C4.35307 14.9775 4.11419 14.6673 4.01576 14.3031C3.91733 13.9389 3.96741 13.5505 4.155 13.2232C4.8375 12.0457 4.2825 11.0857 2.925 11.0857C2.1375 11.0857 1.5 10.4407 1.5 9.66075Z" fill="white"/>
<path d="M9 11.4375C9.64647 11.4375 10.2665 11.1807 10.7236 10.7236C11.1807 10.2665 11.4375 9.64647 11.4375 9C11.4375 8.35353 11.1807 7.73355 10.7236 7.27643C10.2665 6.81931 9.64647 6.5625 9 6.5625C8.35353 6.5625 7.73355 6.81931 7.27643 7.27643C6.81931 7.73355 6.5625 8.35353 6.5625 9C6.5625 9.64647 6.81931 10.2665 7.27643 10.7236C7.73355 11.1807 8.35353 11.4375 9 11.4375Z" fill="white"/>
</svg>
