<svg width="18" height="18" viewBox="0 0 18 18" fill="none" xmlns="http://www.w3.org/2000/svg">
<path d="M9 9C9.99456 9 10.9484 8.60491 11.6517 7.90165C12.3549 7.19839 12.75 6.24456 12.75 5.25C12.75 4.25544 12.3549 3.30161 11.6517 2.59835C10.9484 1.89509 9.99456 1.5 9 1.5C8.00544 1.5 7.05161 1.89509 6.34835 2.59835C5.64509 3.30161 5.25 4.25544 5.25 5.25C5.25 6.24456 5.64509 7.19839 6.34835 7.90165C7.05161 8.60491 8.00544 9 9 9V9Z" stroke="#B2AFCE" stroke-width="1.5" stroke-linecap="round" stroke-linejoin="round"/>
<path opacity="0.4" d="M15.4425 16.5C15.4425 13.5975 12.555 11.25 9 11.25C5.445 11.25 2.5575 13.5975 2.5575 16.5" stroke="#B2AFCE" stroke-width="1.5" stroke-linecap="round" stroke-linejoin="round"/>
</svg>
