<svg width="12" height="10" viewBox="0 0 12 10" fill="none" xmlns="http://www.w3.org/2000/svg">
<path d="M11.3151 8.4059L0.642664 0.0626428C0.613391 0.0392059 0.579789 0.0217641 0.543775 0.0113134C0.507762 0.000862716 0.470043 -0.0023923 0.432771 0.00173423C0.3955 0.00586076 0.359406 0.017288 0.326551 0.0353635C0.293696 0.0534391 0.264723 0.0778089 0.241286 0.107082L0.0628171 0.32999C0.0393252 0.359272 0.021838 0.3929 0.0113562 0.428948C0.000874344 0.464997 -0.00239637 0.502758 0.00173118 0.540072C0.00585873 0.577385 0.0173035 0.613519 0.0354107 0.646405C0.0535178 0.679291 0.0779319 0.708283 0.107256 0.731724L10.7797 9.07498C10.809 9.09842 10.8426 9.11586 10.8786 9.12631C10.9146 9.13676 10.9523 9.14002 10.9896 9.13589C11.0269 9.13176 11.063 9.12034 11.0958 9.10226C11.1287 9.08418 11.1577 9.05981 11.1811 9.03054L11.3596 8.80763C11.3831 8.77835 11.4005 8.74472 11.411 8.70867C11.4215 8.67263 11.4248 8.63486 11.4206 8.59755C11.4165 8.56024 11.4051 8.5241 11.387 8.49122C11.3689 8.45833 11.3444 8.42934 11.3151 8.4059ZM5.29696 2.61404L7.70255 4.49475C7.66293 3.425 6.79057 2.56996 5.71119 2.56996C5.57196 2.57022 5.43313 2.58499 5.29696 2.61404ZM6.12542 6.52376L3.71983 4.64305C3.75963 5.71262 4.63199 6.56767 5.71119 6.56767C5.85041 6.56737 5.98923 6.55266 6.12542 6.52376ZM5.71119 1.99886C7.47179 1.99886 9.08586 2.98044 9.95751 4.56881C9.74384 4.95973 9.47983 5.32093 9.17224 5.6432L9.84578 6.16968C10.2208 5.76852 10.5385 5.31741 10.7899 4.8292C10.8307 4.74844 10.852 4.65921 10.852 4.56872C10.852 4.47823 10.8307 4.38901 10.7899 4.30825C9.82116 2.41986 7.90511 1.1422 5.71119 1.1422C5.05621 1.1422 4.43139 1.26713 3.84387 1.4779L4.67214 2.12557C5.01016 2.04883 5.35639 1.99886 5.71119 1.99886ZM5.71119 7.13877C3.95059 7.13877 2.33669 6.15719 1.46487 4.56881C1.67882 4.1779 1.94312 3.81675 2.25103 3.49461L1.57749 2.96812C1.20255 3.36923 0.884896 3.82027 0.633562 4.30842C0.592735 4.38918 0.571464 4.47841 0.571464 4.5689C0.571464 4.65939 0.592735 4.74862 0.633562 4.82938C1.6014 6.71776 3.51745 7.99542 5.71119 7.99542C6.36617 7.99542 6.99099 7.8696 7.57851 7.65972L6.75024 7.01223C6.41222 7.0888 6.06616 7.13877 5.71119 7.13877Z" fill="#5D5A7E"/>
</svg>
